<?xml version="1.0" standalone="no"?>
<!DOCTYPE svg PUBLIC "-//W3C//DTD SVG 20010904//EN"
 "http://www.w3.org/TR/2001/REC-SVG-20010904/DTD/svg10.dtd">
<svg version="1.0" xmlns="http://www.w3.org/2000/svg"
 width="256.000000pt" height="256.000000pt" viewBox="0 0 256.000000 256.000000"
 preserveAspectRatio="xMidYMid meet">
<metadata>
Created by potrace 1.11, written by Peter Selinger 2001-2013
</metadata>
<g transform="translate(0.000000,256.000000) scale(0.100000,-0.100000)"
fill="#000000" stroke="none">
<path d="M1197 2474 c-1 -1 -27 -4 -57 -8 -371 -41 -707 -259 -899 -584 -44
-73 -117 -250 -126 -304 -3 -18 -10 -49 -15 -68 -13 -53 -23 -157 -22 -235 1
-70 11 -185 17 -195 2 -3 6 -25 10 -49 7 -51 52 -185 86 -256 108 -232 301
-430 537 -553 93 -49 262 -106 342 -117 30 -4 64 -9 75 -11 33 -7 227 -6 280
1 273 37 511 152 700 339 111 110 163 183 234 324 40 82 75 174 90 244 6 24
13 57 17 73 14 61 13 329 -2 410 -29 164 -107 351 -200 483 -63 87 -202 227
-284 284 -168 117 -358 192 -546 214 -53 6 -232 12 -237 8z m253 -248 c14 -3
39 -8 55 -12 94 -19 221 -76 318 -144 386 -266 523 -770 326 -1196 -16 -35
-33 -64 -38 -64 -4 0 -13 10 -19 23 -16 33 -60 108 -262 457 -101 173 -193
333 -205 355 -84 151 -337 581 -343 583 -8 2 -167 -270 -656 -1120 -94 -164
-175 -296 -180 -295 -15 5 -75 150 -97 235 -29 109 -33 307 -9 422 72 346 321
621 660 730 36 11 87 23 115 26 27 4 52 8 53 9 6 6 256 -2 282 -9z m-101 -672
c34 -58 61 -107 61 -108 0 -1 -58 -1 -129 -1 -71 0 -128 2 -127 5 38 73 120
210 126 210 5 0 36 -48 69 -106z m198 -346 c5 -7 24 -39 42 -70 l32 -58 -341
0 -341 0 32 58 c18 31 37 63 42 70 7 9 73 12 267 12 194 0 260 -3 267 -12z
m553 -421 c0 -16 -71 -110 -129 -170 -112 -116 -265 -210 -420 -256 -102 -31
-147 -36 -291 -35 -154 2 -251 24 -400 92 -137 62 -330 239 -402 367 -4 7 269
10 818 10 487 1 824 -3 824 -8z"/>
</g>
</svg>
