<?xml version="1.0" standalone="no"?>
<!DOCTYPE svg PUBLIC "-//W3C//DTD SVG 20010904//EN"
 "http://www.w3.org/TR/2001/REC-SVG-20010904/DTD/svg10.dtd">
<svg version="1.0" xmlns="http://www.w3.org/2000/svg"
 width="94.000000pt" height="94.000000pt" viewBox="0 0 94.000000 94.000000"
 preserveAspectRatio="xMidYMid meet">
<metadata>
Created by potrace 1.11, written by Peter Selinger 2001-2013
</metadata>
<g transform="translate(0.000000,94.000000) scale(0.100000,-0.100000)"
fill="#000000" stroke="none">
<path d="M422 800 c5 -17 15 -29 21 -27 14 4 28 57 16 57 -5 0 -9 -8 -9 -17
-1 -17 -1 -17 -14 0 -20 26 -26 21 -14 -13z"/>
<path d="M483 803 c2 -16 9 -27 20 -29 15 -2 16 0 5 14 -10 12 -10 14 0 8 6
-4 12 -2 12 3 0 6 -6 11 -12 12 -7 0 -4 4 7 9 18 8 17 9 -7 9 -23 1 -27 -3
-25 -26z"/>
<path d="M357 814 c-6 -7 13 -54 22 -54 3 0 13 5 21 10 12 8 12 10 -5 10 -17
0 -17 2 -5 10 12 8 12 10 -5 11 l-20 0 20 9 c20 8 20 9 -1 9 -11 1 -23 -2 -27
-5z"/>
<path d="M320 793 c1 -11 26 -43 33 -43 4 0 1 11 -5 25 -10 23 -28 35 -28 18z"/>
<path d="M600 785 c-16 -19 -6 -45 17 -44 11 0 13 3 6 6 -22 8 -14 33 10 33
18 0 19 2 7 10 -20 13 -25 12 -40 -5z"/>
<path d="M293 776 c6 -14 3 -16 -13 -11 -23 7 -25 2 -10 -26 13 -23 32 -26 23
-3 -5 13 -2 15 16 9 20 -6 22 -5 12 13 -15 27 -37 42 -28 18z"/>
<path d="M656 754 c-25 -25 -7 -50 33 -44 9 1 12 -4 8 -14 -9 -22 6 -20 27 3
11 12 14 21 7 26 -6 3 -11 1 -11 -4 0 -6 -4 -11 -10 -11 -5 0 -10 11 -10 24 0
29 -24 40 -44 20z m34 -13 c0 -12 -20 -25 -27 -18 -7 7 6 27 18 27 5 0 9 -4 9
-9z"/>
<path d="M219 728 c-9 -18 -8 -24 6 -34 21 -16 45 -8 44 15 0 10 -2 11 -6 4
-2 -7 -12 -13 -20 -13 -11 0 -14 7 -9 25 8 31 1 32 -15 3z"/>
<path d="M176 681 c-7 -11 14 -51 26 -51 5 0 8 6 8 14 0 8 6 16 13 19 15 5 9
12 -20 21 -12 4 -24 2 -27 -3z"/>
<path d="M722 678 c-17 -17 -15 -33 2 -19 12 10 13 8 9 -8 -7 -26 18 -29 38
-4 12 15 12 16 -2 11 -13 -5 -16 -2 -12 13 6 22 -16 26 -35 7z"/>
<path d="M448 624 c-13 -21 -53 -90 -89 -154 l-66 -115 88 -3 c49 -1 129 -1
178 0 l89 3 -88 154 -89 154 -23 -39z m55 -79 c15 -25 27 -48 27 -50 0 -3 -27
-5 -60 -5 -33 0 -60 2 -60 4 0 9 53 96 58 96 4 0 19 -20 35 -45z m70 -120 c9
-20 17 -38 17 -40 0 -3 -54 -5 -120 -5 -66 0 -120 2 -120 5 0 2 8 20 17 40
l17 35 86 0 86 0 17 -35z"/>
<path d="M213 237 c-18 -22 -18 -22 3 -4 21 17 34 14 34 -10 0 -7 -9 -13 -20
-13 -11 0 -20 -4 -20 -9 0 -5 9 -7 20 -4 14 4 20 0 20 -10 0 -18 34 -40 45
-29 3 4 13 -2 21 -13 14 -19 15 -18 12 13 -1 17 -6 32 -11 32 -5 0 -7 -7 -4
-14 4 -10 1 -13 -8 -10 -8 3 -11 13 -8 22 4 12 1 12 -10 -3 -20 -25 -36 -11
-18 17 7 11 8 17 2 13 -7 -3 -11 2 -11 13 0 29 -25 34 -47 9z"/>
<path d="M695 250 c-9 -15 4 -30 20 -23 8 3 15 0 15 -5 0 -20 -20 -23 -45 -6
-22 15 -25 15 -25 0 0 -10 6 -13 18 -9 14 5 15 3 5 -8 -7 -7 -13 -20 -12 -29
0 -9 4 -6 10 8 5 13 14 20 19 17 14 -9 40 13 40 32 0 11 -7 14 -21 10 -15 -4
-19 -2 -15 9 6 16 0 19 -9 4z"/>
<path d="M613 193 c-24 -16 -30 -47 -13 -58 6 -4 10 -3 9 2 -4 20 2 24 18 12
15 -13 15 -12 2 8 -17 28 -4 43 17 17 15 -18 15 -18 5 2 -6 12 -7 24 -4 28 13
12 -12 5 -34 -11z"/>
<path d="M347 174 c-4 -4 -7 -14 -7 -23 0 -14 2 -14 10 -1 8 13 10 12 10 -3 0
-11 4 -15 12 -11 8 5 9 2 5 -10 -4 -9 -3 -15 2 -12 5 3 11 17 13 31 4 20 2 23
-8 15 -9 -8 -15 -7 -21 5 -5 8 -12 12 -16 9z"/>
<path d="M535 166 c-16 -6 -36 -17 -43 -23 -11 -11 -10 -13 8 -13 12 0 18 5
15 10 -3 6 -2 10 4 10 5 0 12 -10 14 -22 4 -20 4 -19 6 5 0 17 7 27 16 27 8 0
15 5 15 10 0 6 -1 10 -2 9 -2 -1 -16 -6 -33 -13z"/>
<path d="M441 134 c0 -11 3 -14 6 -6 3 7 2 16 -1 19 -3 4 -6 -2 -5 -13z"/>
<path d="M550 135 c0 -9 9 -15 23 -14 17 1 18 2 4 6 -9 2 -15 9 -12 14 4 5 1
9 -4 9 -6 0 -11 -7 -11 -15z"/>
</g>
</svg>
